<?xml version="1.0" encoding="utf-8"?>
<!-- Generator: Adobe Illustrator 16.0.0, SVG Export Plug-In . SVG Version: 6.00 Build 0)  -->
<!DOCTYPE svg PUBLIC "-//W3C//DTD SVG 1.1//EN" "http://www.w3.org/Graphics/SVG/1.1/DTD/svg11.dtd">
<svg version="1.1" id="Layer_1" xmlns="http://www.w3.org/2000/svg" xmlns:xlink="http://www.w3.org/1999/xlink" x="0px" y="0px"
	 width="300.207px" height="301px" viewBox="0 0 300.207 301" enable-background="new 0 0 300.207 301" xml:space="preserve">
<path fill="#FFFFFF" d="M58.537,139.805c-0.405,0,4.421,10.214,4.557,10.214c10.533,18.794,30.841,30.481,65.092,33.723
	c-4.89,3.647-10.759,10.56-11.574,18.556c-6.147,3.902-18.512,5.198-28.116,2.221c-13.471-4.181-18.626-30.38-38.788-26.646
	c-4.365,0.805-3.498,3.637,0.274,6.042c6.151,3.908,11.932,8.797,16.39,19.205c3.43,7.998,10.633,22.276,33.416,22.276
	c9.039,0,15.377-1.075,15.377-1.075s0.169,20.405,0.169,28.34c0,9.156-12.564,11.728-12.564,16.127c0,1.736,4.159,1.905,7.498,1.905
	c6.606,0,20.343-5.416,20.343-14.927c0-7.552,0.128-32.937,0.128-37.396c0-9.71,5.296-12.791,5.296-12.791
	s0.657,51.844-1.261,58.809c-2.26,8.172-6.33,7.013-6.33,10.66c0,5.429,16.541,1.342,22.023-10.578
	c4.236-9.25,2.381-60.134,2.381-60.134l4.521-0.096c0,0,0.257,23.284,0.1,33.938c-0.154,11.021-0.92,24.963,5.741,31.537
	c4.378,4.327,18.559,11.904,18.559,4.974c0-4.024-7.769-7.329-7.769-18.23v-50.167c6.209,0,5.273,16.495,5.273,16.495l0.453,30.651
	c0,0-1.37,11.165,12.293,15.833c4.821,1.663,15.121,2.114,15.611-0.672c0.486-2.787-12.417-6.938-12.532-15.568
	c-0.081-5.283,0.239-8.362,0.239-31.28c0-22.925-3.138-31.394-14.051-38.141c33.678-3.402,54.524-11.593,64.682-33.517
	c0.797,0.021,4.145-10.243,3.706-10.243c2.275-8.281,3.516-18.069,3.752-29.663c-0.062-31.458-15.372-42.576-18.316-47.799
	c4.338-23.812-0.728-34.638-3.075-38.357c-8.683-3.037-30.189,7.803-41.952,15.433c-19.146-5.499-59.652-4.973-74.842,1.424
	C87.223,21.17,72.395,24.193,72.395,24.193s-9.583,16.878-2.531,41.573c-9.217,11.547-16.094,19.719-16.094,41.371
	C53.781,119.351,55.244,130.275,58.537,139.805z"/>
</svg>
