<?xml version="1.0" encoding="utf-8"?>
<!-- Generator: Adobe Illustrator 16.0.0, SVG Export Plug-In . SVG Version: 6.00 Build 0)  -->
<!DOCTYPE svg PUBLIC "-//W3C//DTD SVG 1.1//EN" "http://www.w3.org/Graphics/SVG/1.1/DTD/svg11.dtd">
<svg version="1.1" id="Layer_1" xmlns="http://www.w3.org/2000/svg" xmlns:xlink="http://www.w3.org/1999/xlink" x="0px" y="0px"
	 width="300.207px" height="301px" viewBox="0 0 300.207 301" enable-background="new 0 0 300.207 301" xml:space="preserve">
<g>
	<path fill="#FFFFFF" d="M162.796,135.015v-0.484c-0.121,0.161-0.242,0.323-0.322,0.484H162.796z"/>
	<rect x="46.641" y="115.447" fill="#FFFFFF" width="45" height="136"/>
	<path fill="#FFFFFF" d="M69.85,96.447h-0.283c-15.201,0-25-10.334-25-23.399c0-13.389,10.121-23.495,25.605-23.495
		c15.484,0,25.001,10.08,25.283,23.467C95.455,86.086,85.657,96.447,69.85,96.447z"/>
	<path fill="#FFFFFF" d="M255.64,251.447h-46v-72.882c0-18.308-6.143-30.768-22.515-30.768c-12.501,0-19.844,8.388-23.11,16.532
		c-1.209,2.903-1.375,6.977-1.375,11.049v76.068h-45.087c0,0,0.564-123,0-136h45.087v19.083c6-9.274,16.821-22.461,40.854-22.461
		c29.761,0,52.146,19.438,52.146,61.293V251.447z"/>
</g>
</svg>
