<?xml version="1.0" encoding="utf-8"?>
<!-- Generator: Adobe Illustrator 16.0.0, SVG Export Plug-In . SVG Version: 6.00 Build 0)  -->
<!DOCTYPE svg PUBLIC "-//W3C//DTD SVG 1.1//EN" "http://www.w3.org/Graphics/SVG/1.1/DTD/svg11.dtd">
<svg version="1.1" id="Layer_1" xmlns="http://www.w3.org/2000/svg" xmlns:xlink="http://www.w3.org/1999/xlink" x="0px" y="0px"
	 width="300.207px" height="301px" viewBox="0 0 300.207 301" enable-background="new 0 0 300.207 301" xml:space="preserve">
<path fill="#FFFFFF" d="M237.148,132.316h-19.921c1.45,5.644,2.308,11.534,2.308,17.614c0,38.91-31.537,70.448-70.44,70.448
	c-38.912,0-70.448-31.538-70.448-70.448c0-6.09,0.863-11.97,2.298-17.614H61.024v96.87c0,4.852,3.946,8.796,8.816,8.796h158.493
	c4.877,0,8.815-3.944,8.815-8.796V132.316L237.148,132.316z M237.148,70.683c0-4.862-3.938-8.807-8.815-8.807h-26.411
	c-4.862,0-8.801,3.945-8.801,8.807v26.42c0,4.86,3.938,8.808,8.801,8.808h26.411c4.877,0,8.815-3.947,8.815-8.808V70.683z
	 M149.095,105.911c-24.32,0-44.027,19.708-44.027,44.02s19.707,44.034,44.027,44.034c24.318,0,44.043-19.722,44.043-44.034
	S173.413,105.911,149.095,105.911 M237.148,264.412H61.041c-14.582,0-26.413-11.822-26.413-26.431V61.876
	c0-14.591,11.832-26.404,26.413-26.404h176.125c14.582,0,26.414,11.83,26.414,26.404v176.105
	C263.562,252.59,251.747,264.412,237.148,264.412"/>
</svg>
