<?xml version="1.0" encoding="utf-8"?>
<!-- Generator: Adobe Illustrator 16.0.0, SVG Export Plug-In . SVG Version: 6.00 Build 0)  -->
<!DOCTYPE svg PUBLIC "-//W3C//DTD SVG 1.1//EN" "http://www.w3.org/Graphics/SVG/1.1/DTD/svg11.dtd">
<svg version="1.1" id="Layer_1" xmlns="http://www.w3.org/2000/svg" xmlns:xlink="http://www.w3.org/1999/xlink" x="0px" y="0px"
	 width="30px" height="60px" viewBox="0 0 30 60" enable-background="new 0 0 30 60" xml:space="preserve">
<path fill="#FFFFFF" d="M20.632,10.297h-2.825c-0.166,0-0.363,0.085-0.591,0.25c-0.227,0.166-0.34,0.394-0.34,0.679v0.966h2.789
	v3.719h-2.789v7.51h-3.753v-7.51h-2.824v-3.719h2.824v-1.895c0-0.452,0.107-0.905,0.322-1.358c0.215-0.453,0.518-0.857,0.912-1.216
	c0.393-0.358,0.852-0.644,1.375-0.858c0.523-0.214,1.097-0.322,1.716-0.322h3.184V10.297z M29.999,14.981
	c0-2.074-0.394-4.018-1.181-5.829c-0.786-1.811-1.86-3.396-3.219-4.755c-1.357-1.359-2.949-2.433-4.772-3.218
	C19.003,0.393,17.057,0,14.982,0c-2.074,0-4.018,0.393-5.83,1.18C7.341,1.965,5.757,3.039,4.398,4.397S1.966,7.342,1.181,9.152
	C0.394,10.964,0,12.907,0,14.981c0,2.074,0.395,4.022,1.182,5.846c0.785,1.823,1.857,3.415,3.217,4.773s2.943,2.432,4.754,3.219
	S12.908,30,14.982,30c2.075,0,4.021-0.396,5.845-1.183c1.823-0.786,3.416-1.858,4.772-3.218c1.356-1.358,2.433-2.949,3.219-4.772
	C29.605,19.004,29.999,17.055,29.999,14.981"/>
<path fill="#3B5998" d="M20.632,40.297h-2.825c-0.166,0-0.363,0.085-0.591,0.25c-0.227,0.166-0.34,0.396-0.34,0.681v0.965h2.789
	v3.72h-2.789v7.51h-3.753v-7.51h-2.824v-3.72h2.824v-1.896c0-0.45,0.107-0.903,0.322-1.356c0.215-0.453,0.518-0.857,0.912-1.217
	c0.393-0.357,0.852-0.645,1.375-0.857c0.523-0.215,1.097-0.322,1.716-0.322h3.184V40.297z M29.999,44.979
	c0-2.072-0.394-4.018-1.181-5.828c-0.786-1.812-1.86-3.396-3.219-4.756c-1.357-1.357-2.949-2.433-4.772-3.217
	C19.003,30.394,17.057,30,14.982,30c-2.074,0-4.018,0.394-5.83,1.181c-1.811,0.784-3.395,1.858-4.754,3.217
	c-1.359,1.357-2.432,2.944-3.217,4.756C0.394,40.964,0,42.907,0,44.979c0,2.075,0.395,4.022,1.182,5.848
	c0.785,1.823,1.857,3.415,3.217,4.772s2.943,2.432,4.754,3.219S12.908,60,14.982,60c2.075,0,4.021-0.395,5.845-1.182
	c1.823-0.787,3.416-1.859,4.772-3.219c1.356-1.358,2.433-2.949,3.219-4.772C29.605,49.004,29.999,47.055,29.999,44.979"/>
</svg>
