<?xml version="1.0" encoding="utf-8"?>
<!-- Generator: Adobe Illustrator 16.0.0, SVG Export Plug-In . SVG Version: 6.00 Build 0)  -->
<!DOCTYPE svg PUBLIC "-//W3C//DTD SVG 1.1//EN" "http://www.w3.org/Graphics/SVG/1.1/DTD/svg11.dtd">
<svg version="1.1" id="Layer_1" xmlns="http://www.w3.org/2000/svg" xmlns:xlink="http://www.w3.org/1999/xlink" x="0px" y="0px"
	 width="30px" height="60px" viewBox="0 0 30 60" enable-background="new 0 0 30 60" xml:space="preserve">
<g>
	<path fill="#FFFFFF" d="M14.839,18.314c0.454,0,0.878-0.082,1.272-0.25c0.396-0.168,0.742-0.399,1.041-0.699
		c0.299-0.299,0.531-0.65,0.699-1.057c0.166-0.406,0.25-0.837,0.25-1.291c0-0.908-0.316-1.679-0.949-2.312
		c-0.635-0.635-1.404-0.949-2.312-0.949c-0.454,0-0.878,0.082-1.272,0.25c-0.395,0.167-0.741,0.4-1.039,0.699
		c-0.299,0.298-0.532,0.645-0.699,1.039c-0.167,0.395-0.252,0.818-0.252,1.272c0,0.453,0.084,0.883,0.252,1.29
		c0.167,0.406,0.4,0.758,0.699,1.058c0.298,0.3,0.645,0.532,1.039,0.698C13.96,18.232,14.385,18.314,14.839,18.314"/>
	<path fill="#FFFFFF" d="M20.072,15.019c0,0.717-0.139,1.397-0.413,2.042c-0.273,0.646-0.646,1.207-1.11,1.686
		c-0.466,0.479-1.021,0.854-1.667,1.129c-0.646,0.273-1.325,0.413-2.043,0.413c-0.717,0-1.397-0.14-2.042-0.413
		s-1.2-0.65-1.667-1.129c-0.466-0.479-0.836-1.039-1.111-1.686c-0.275-0.645-0.412-1.325-0.412-2.042
		c0-0.216,0.011-0.437,0.035-0.663c0.024-0.228,0.06-0.438,0.108-0.627H8.28v7.203c0,0.191,0.06,0.348,0.179,0.467
		c0.12,0.119,0.274,0.179,0.466,0.179h11.828c0.19,0,0.347-0.06,0.468-0.179c0.118-0.119,0.178-0.274,0.178-0.467v-7.203H19.93
		c0.047,0.189,0.084,0.399,0.106,0.627C20.062,14.582,20.072,14.803,20.072,15.019"/>
	<path fill="#FFFFFF" d="M23.37,21.578c0,0.549-0.19,1.014-0.574,1.396c-0.382,0.383-0.848,0.573-1.397,0.573H8.28
		c-0.55,0-1.016-0.19-1.398-0.573c-0.383-0.383-0.573-0.848-0.573-1.396V8.459c0-0.549,0.19-1.015,0.573-1.398
		C7.264,6.679,7.73,6.488,8.28,6.488h13.117c0.553,0,1.019,0.191,1.398,0.573c0.383,0.383,0.574,0.849,0.574,1.398L23.37,21.578
		L23.37,21.578z M30,14.982c0-2.08-0.395-4.027-1.184-5.842c-0.787-1.816-1.862-3.399-3.226-4.75c-1.362-1.35-2.95-2.42-4.769-3.208
		C19.009,0.395,17.062,0,14.983,0c-2.08,0-4.027,0.395-5.842,1.183c-1.816,0.789-3.4,1.858-4.749,3.208
		c-1.35,1.35-2.42,2.933-3.208,4.75C0.395,10.956,0,12.902,0,14.982c0,2.079,0.395,4.026,1.183,5.842
		c0.788,1.816,1.858,3.404,3.208,4.768c1.349,1.361,2.933,2.438,4.749,3.225C10.956,29.605,12.903,30,14.983,30
		c2.08,0,4.026-0.395,5.841-1.184c1.816-0.787,3.404-1.863,4.769-3.226c1.361-1.362,2.437-2.95,3.226-4.768
		C29.605,19.009,30,17.061,30,14.982"/>
	<path fill="#FFFFFF" d="M20.753,8.459h-1.971c-0.192,0-0.354,0.066-0.484,0.197c-0.131,0.131-0.196,0.293-0.196,0.484v1.971
		c0,0.191,0.064,0.347,0.196,0.467c0.132,0.119,0.292,0.178,0.484,0.178h1.971c0.188,0,0.347-0.059,0.466-0.178
		c0.12-0.12,0.18-0.275,0.18-0.467v-1.97c0-0.191-0.06-0.353-0.18-0.484C21.1,8.525,20.943,8.459,20.753,8.459"/>
</g>
<g>
	<path fill="#BF8361" d="M14.839,48.314c0.454,0,0.878-0.082,1.272-0.25c0.396-0.168,0.742-0.4,1.041-0.699s0.531-0.65,0.699-1.057
		c0.166-0.406,0.25-0.838,0.25-1.291c0-0.908-0.316-1.681-0.949-2.312c-0.635-0.635-1.404-0.949-2.312-0.949
		c-0.454,0-0.878,0.082-1.272,0.25c-0.395,0.168-0.741,0.4-1.039,0.699c-0.299,0.299-0.532,0.646-0.699,1.039
		c-0.167,0.396-0.252,0.818-0.252,1.273c0,0.453,0.084,0.883,0.252,1.289c0.167,0.405,0.4,0.758,0.699,1.057
		c0.298,0.301,0.645,0.533,1.039,0.699C13.96,48.232,14.385,48.314,14.839,48.314"/>
	<path fill="#BF8361" d="M20.072,45.02c0,0.717-0.139,1.396-0.413,2.041c-0.273,0.646-0.646,1.207-1.11,1.687
		c-0.466,0.479-1.021,0.854-1.667,1.129c-0.646,0.272-1.325,0.412-2.043,0.412c-0.717,0-1.397-0.14-2.042-0.412
		s-1.2-0.649-1.667-1.129c-0.466-0.479-0.836-1.039-1.111-1.687c-0.275-0.645-0.412-1.324-0.412-2.041
		c0-0.217,0.011-0.438,0.035-0.664c0.024-0.229,0.06-0.438,0.108-0.627H8.28v7.203c0,0.191,0.06,0.348,0.179,0.467
		c0.12,0.119,0.274,0.179,0.466,0.179h11.828c0.19,0,0.347-0.06,0.468-0.179c0.118-0.119,0.178-0.274,0.178-0.467v-7.203H19.93
		c0.047,0.189,0.084,0.398,0.106,0.627C20.062,44.582,20.072,44.803,20.072,45.02"/>
	<path fill="#BF8361" d="M23.37,51.578c0,0.549-0.19,1.014-0.574,1.396c-0.382,0.383-0.848,0.571-1.397,0.571H8.28
		c-0.55,0-1.016-0.188-1.398-0.571c-0.383-0.386-0.573-0.851-0.573-1.396V38.459c0-0.549,0.19-1.016,0.573-1.398
		c0.382-0.381,0.848-0.571,1.398-0.571h13.117c0.553,0,1.019,0.19,1.398,0.571c0.383,0.383,0.574,0.851,0.574,1.398L23.37,51.578
		L23.37,51.578z M30,44.982c0-2.08-0.395-4.027-1.184-5.842c-0.787-1.816-1.862-3.4-3.226-4.75c-1.362-1.353-2.95-2.42-4.769-3.209
		C19.009,30.395,17.062,30,14.983,30c-2.08,0-4.027,0.395-5.842,1.184c-1.816,0.789-3.4,1.856-4.749,3.207
		c-1.35,1.35-2.42,2.934-3.208,4.75C0.395,40.955,0,42.902,0,44.982c0,2.078,0.395,4.024,1.183,5.842
		c0.788,1.816,1.858,3.404,3.208,4.768c1.349,1.361,2.933,2.438,4.749,3.225C10.956,59.605,12.903,60,14.983,60
		c2.08,0,4.026-0.395,5.841-1.184c1.816-0.787,3.404-1.863,4.769-3.228c1.361-1.36,2.437-2.948,3.226-4.769
		C29.605,49.008,30,47.061,30,44.982"/>
	<path fill="#BF8361" d="M20.753,38.459h-1.971c-0.192,0-0.354,0.066-0.484,0.197c-0.131,0.131-0.196,0.293-0.196,0.484v1.971
		c0,0.188,0.064,0.346,0.196,0.467c0.132,0.119,0.292,0.178,0.484,0.178h1.971c0.188,0,0.347-0.059,0.466-0.178
		c0.12-0.121,0.18-0.275,0.18-0.467v-1.971c0-0.191-0.06-0.354-0.18-0.484C21.1,38.525,20.943,38.459,20.753,38.459"/>
</g>
</svg>
