<?xml version="1.0" encoding="utf-8"?>
<!-- Generator: Adobe Illustrator 16.0.0, SVG Export Plug-In . SVG Version: 6.00 Build 0)  -->
<!DOCTYPE svg PUBLIC "-//W3C//DTD SVG 1.1//EN" "http://www.w3.org/Graphics/SVG/1.1/DTD/svg11.dtd">
<svg version="1.1" id="Layer_1" xmlns="http://www.w3.org/2000/svg" xmlns:xlink="http://www.w3.org/1999/xlink" x="0px" y="0px"
	 width="30px" height="60px" viewBox="0 -15 30 60" enable-background="new 0 -15 30 60" xml:space="preserve">
<path fill="#FFFFFF" d="M21.973-1.542C21.9-0.933,21.77-0.33,21.577,0.269c-0.191,0.597-0.437,1.146-0.734,1.649
	c-0.299,0.501-0.661,0.932-1.094,1.289c-0.285,0.238-0.662,0.454-1.127,0.646c-0.468,0.189-0.951,0.32-1.453,0.394
	c-0.502,0.071-1.004,0.078-1.504,0.021c-0.503-0.062-0.934-0.232-1.292-0.521c-0.12-0.071-0.208-0.19-0.269-0.356
	c-0.059-0.168-0.148-0.19-0.269-0.072c-0.215,0.858-0.466,1.757-0.753,2.688c-0.286,0.932-0.633,1.744-1.039,2.438H10.86
	l0.037-0.034c-0.096-0.357-0.125-0.823-0.09-1.398c0.036-0.571,0.077-1.024,0.125-1.36c0.072-0.43,0.186-0.891,0.34-1.379
	c0.156-0.49,0.312-0.992,0.467-1.506c0.154-0.515,0.292-1.017,0.412-1.507c0.119-0.487,0.18-0.95,0.18-1.379
	c0-0.383-0.061-0.771-0.18-1.166c-0.12-0.395-0.154-0.795-0.107-1.2c0.072-0.382,0.244-0.741,0.52-1.075
	c0.275-0.335,0.579-0.586,0.914-0.753c0.334-0.167,0.676-0.209,1.021-0.126c0.346,0.085,0.615,0.341,0.807,0.771
	c0.215,0.502,0.245,1.026,0.09,1.577c-0.156,0.55-0.329,1.087-0.52,1.613c-0.191,0.524-0.323,1.015-0.395,1.467
	c-0.072,0.455,0.084,0.861,0.465,1.221c0.144,0.145,0.389,0.257,0.736,0.341c0.346,0.083,0.688,0.091,1.022,0.019
	c0.524-0.096,0.979-0.348,1.36-0.752c0.383-0.406,0.687-0.885,0.914-1.436c0.227-0.55,0.369-1.153,0.431-1.811
	c0.059-0.656,0.034-1.29-0.072-1.899c-0.106-0.608-0.293-1.159-0.555-1.648c-0.265-0.489-0.621-0.866-1.074-1.129
	c-0.957-0.55-1.913-0.776-2.87-0.681c-0.955,0.096-1.803,0.394-2.544,0.896c-0.741,0.503-1.331,1.153-1.774,1.954
	c-0.441,0.8-0.615,1.642-0.52,2.526c0.023,0.335,0.119,0.639,0.286,0.913c0.168,0.276,0.312,0.539,0.431,0.789
	c0.119,0.251,0.174,0.502,0.162,0.753c-0.013,0.251-0.174,0.521-0.484,0.808c-0.908-0.334-1.542-0.812-1.9-1.436
	C8.138-0.205,7.958-1.018,7.958-2.021c0-1.051,0.238-1.995,0.717-2.832c0.478-0.839,1.105-1.537,1.881-2.1
	c0.777-0.562,1.673-0.973,2.688-1.235c1.017-0.264,2.073-0.336,3.172-0.216c0.716,0.072,1.398,0.263,2.044,0.574
	c0.646,0.31,1.22,0.691,1.722,1.146c0.5,0.454,0.907,0.974,1.217,1.56c0.312,0.585,0.502,1.188,0.574,1.809
	C22.044-2.742,22.044-2.151,21.973-1.542 M30.001-0.019c0-2.078-0.396-4.026-1.185-5.842c-0.787-1.816-1.856-3.398-3.207-4.748
	c-1.353-1.35-2.935-2.42-4.75-3.209C19.044-14.605,17.1-15,15.018-15c-2.078,0-4.026,0.395-5.842,1.182
	c-1.816,0.789-3.404,1.859-4.767,3.209C3.047-9.259,1.971-7.677,1.183-5.86C0.395-4.045,0-2.097,0-0.019
	c0,2.078,0.395,4.026,1.183,5.843c0.788,1.814,1.864,3.404,3.226,4.767c1.363,1.361,2.951,2.437,4.768,3.226
	C10.992,14.605,12.94,15,15.018,15c2.082,0,4.026-0.395,5.841-1.184s3.397-1.864,4.75-3.228c1.351-1.36,2.42-2.95,3.207-4.767
	C29.605,4.008,30.001,2.061,30.001-0.019"/>
<path fill="#E85061" d="M21.973,28.458c-0.072,0.608-0.203,1.212-0.396,1.812c-0.191,0.597-0.437,1.146-0.734,1.648
	c-0.299,0.501-0.661,0.932-1.094,1.289c-0.285,0.238-0.662,0.454-1.127,0.646c-0.468,0.189-0.951,0.32-1.453,0.394
	c-0.502,0.071-1.004,0.078-1.504,0.021c-0.503-0.062-0.934-0.232-1.292-0.521c-0.12-0.071-0.208-0.19-0.269-0.356
	c-0.059-0.168-0.148-0.19-0.269-0.072c-0.215,0.858-0.466,1.757-0.753,2.688c-0.286,0.932-0.633,1.744-1.039,2.438H10.86
	l0.037-0.034c-0.096-0.357-0.125-0.823-0.09-1.398c0.036-0.571,0.077-1.024,0.125-1.36c0.072-0.43,0.186-0.891,0.34-1.379
	c0.156-0.49,0.312-0.992,0.467-1.506c0.154-0.515,0.292-1.017,0.412-1.507c0.119-0.487,0.18-0.95,0.18-1.379
	c0-0.383-0.061-0.771-0.18-1.166c-0.12-0.396-0.154-0.795-0.107-1.2c0.072-0.382,0.244-0.74,0.52-1.074
	c0.275-0.336,0.579-0.586,0.914-0.754c0.334-0.166,0.676-0.209,1.021-0.125c0.346,0.084,0.615,0.34,0.807,0.771
	c0.215,0.502,0.245,1.026,0.09,1.577c-0.156,0.55-0.329,1.087-0.52,1.613c-0.191,0.523-0.323,1.015-0.395,1.467
	c-0.072,0.455,0.084,0.861,0.465,1.221c0.144,0.145,0.389,0.257,0.736,0.341c0.346,0.083,0.688,0.091,1.022,0.019
	c0.524-0.096,0.979-0.348,1.36-0.752c0.383-0.406,0.687-0.885,0.914-1.436c0.227-0.55,0.369-1.152,0.431-1.811
	c0.059-0.656,0.034-1.291-0.072-1.899s-0.293-1.159-0.555-1.647c-0.265-0.489-0.621-0.866-1.074-1.129
	c-0.957-0.551-1.913-0.776-2.87-0.682c-0.955,0.096-1.803,0.395-2.544,0.896c-0.741,0.502-1.331,1.152-1.774,1.953
	c-0.441,0.801-0.615,1.643-0.52,2.526c0.023,0.335,0.119,0.64,0.286,0.913c0.168,0.275,0.312,0.539,0.431,0.789
	c0.119,0.251,0.174,0.502,0.162,0.753c-0.013,0.251-0.174,0.521-0.484,0.808c-0.908-0.334-1.542-0.812-1.9-1.436
	c-0.357-0.621-0.537-1.434-0.537-2.438c0-1.051,0.238-1.994,0.717-2.832c0.478-0.838,1.105-1.537,1.881-2.1
	c0.777-0.562,1.673-0.973,2.688-1.234c1.017-0.265,2.073-0.336,3.172-0.217c0.716,0.072,1.398,0.264,2.044,0.574
	s1.22,0.691,1.722,1.146c0.5,0.453,0.907,0.974,1.217,1.56c0.312,0.585,0.502,1.188,0.574,1.81
	C22.044,27.258,22.044,27.85,21.973,28.458 M30.001,29.98c0-2.078-0.396-4.025-1.185-5.842c-0.787-1.815-1.856-3.397-3.207-4.748
	c-1.353-1.35-2.935-2.42-4.75-3.209C19.044,15.395,17.1,15,15.018,15c-2.078,0-4.026,0.395-5.842,1.182
	c-1.816,0.789-3.404,1.859-4.767,3.209c-1.362,1.351-2.438,2.933-3.226,4.75C0.395,25.955,0,27.902,0,29.98s0.395,4.026,1.183,5.844
	c0.788,1.814,1.864,3.404,3.226,4.767c1.363,1.361,2.951,2.437,4.768,3.226C10.992,44.605,12.94,45,15.018,45
	c2.082,0,4.026-0.395,5.841-1.184s3.397-1.864,4.75-3.228c1.351-1.36,2.42-2.95,3.207-4.767
	C29.605,34.008,30.001,32.061,30.001,29.98"/>
</svg>
