<?xml version="1.0" encoding="utf-8"?>
<!-- Generator: Adobe Illustrator 16.0.0, SVG Export Plug-In . SVG Version: 6.00 Build 0)  -->
<!DOCTYPE svg PUBLIC "-//W3C//DTD SVG 1.1//EN" "http://www.w3.org/Graphics/SVG/1.1/DTD/svg11.dtd">
<svg version="1.1" id="Layer_1" xmlns="http://www.w3.org/2000/svg" xmlns:xlink="http://www.w3.org/1999/xlink" x="0px" y="0px"
	 width="30px" height="60px" viewBox="0 0 30 60" enable-background="new 0 0 30 60" xml:space="preserve">
<path fill="#FFFFFF" d="M22.148,10.43c0.384-0.048,0.748-0.119,1.097-0.215c0.346-0.094,0.687-0.214,1.021-0.357
	c-0.524,0.741-1.136,1.373-1.828,1.899v0.466c0,1.194-0.226,2.407-0.683,3.638c-0.45,1.229-1.114,2.343-1.987,3.332
	c-0.871,0.992-1.953,1.805-3.244,2.438c-1.292,0.634-2.771,0.951-4.442,0.951c-1.029,0-2.014-0.146-2.957-0.433
	c-0.944-0.284-1.823-0.689-2.636-1.217c0.143,0.024,0.287,0.043,0.43,0.055c0.143,0.012,0.299,0.02,0.465,0.02
	c0.838,0,1.645-0.139,2.42-0.413c0.777-0.274,1.477-0.663,2.098-1.165c-0.812,0-1.523-0.238-2.133-0.718
	c-0.609-0.479-1.033-1.075-1.273-1.791c0.121,0.021,0.234,0.041,0.342,0.053c0.107,0.012,0.221,0.02,0.34,0.02
	c0.168,0,0.328-0.014,0.484-0.036c0.154-0.024,0.316-0.06,0.482-0.108c-0.836-0.167-1.533-0.579-2.096-1.238
	c-0.561-0.655-0.842-1.438-0.842-2.347v-0.036c0.477,0.264,1.027,0.419,1.648,0.468c-0.477-0.337-0.865-0.772-1.164-1.311
	c-0.301-0.536-0.449-1.116-0.449-1.737c0-0.669,0.166-1.278,0.502-1.827c0.908,1.122,2.006,2.019,3.299,2.688
	c1.289,0.67,2.688,1.04,4.191,1.11c-0.023-0.119-0.041-0.25-0.053-0.394c-0.012-0.145-0.018-0.286-0.018-0.432
	c0-0.5,0.094-0.973,0.287-1.414c0.19-0.442,0.446-0.831,0.77-1.165c0.322-0.335,0.705-0.598,1.146-0.788
	c0.442-0.191,0.913-0.287,1.418-0.287c0.549,0,1.049,0.106,1.504,0.322c0.453,0.215,0.848,0.49,1.185,0.825
	c0.403-0.072,0.799-0.186,1.182-0.341c0.384-0.156,0.755-0.329,1.113-0.52c-0.119,0.405-0.324,0.782-0.611,1.128
	C22.866,9.899,22.532,10.19,22.148,10.43 M29.999,14.982c0-2.078-0.396-4.027-1.185-5.842c-0.787-1.816-1.862-3.399-3.224-4.749
	c-1.362-1.351-2.95-2.421-4.768-3.209C19.007,0.395,17.061,0,14.982,0c-2.08,0-4.027,0.395-5.842,1.183
	c-1.816,0.788-3.4,1.858-4.75,3.209c-1.35,1.35-2.42,2.933-3.207,4.749C0.394,10.955,0,12.904,0,14.982
	c0,2.079,0.395,4.026,1.184,5.843c0.786,1.816,1.857,3.405,3.206,4.766c1.35,1.362,2.934,2.438,4.75,3.226
	C10.955,29.605,12.902,30,14.982,30c2.079,0,4.025-0.395,5.843-1.184c1.815-0.789,3.403-1.863,4.768-3.227
	c1.359-1.359,2.437-2.951,3.224-4.766C29.604,19.009,29.999,17.061,29.999,14.982"/>
<path fill="#55ACEE" d="M22.148,40.43c0.384-0.048,0.748-0.119,1.097-0.215c0.346-0.094,0.687-0.214,1.021-0.357
	c-0.524,0.742-1.136,1.373-1.828,1.899v0.466c0,1.194-0.226,2.407-0.683,3.639c-0.45,1.229-1.114,2.344-1.987,3.332
	c-0.871,0.992-1.953,1.806-3.244,2.438c-1.292,0.634-2.771,0.951-4.442,0.951c-1.029,0-2.014-0.146-2.957-0.433
	c-0.943-0.285-1.822-0.69-2.635-1.219c0.143,0.023,0.287,0.043,0.43,0.055s0.299,0.02,0.465,0.02c0.838,0,1.645-0.139,2.42-0.413
	c0.777-0.274,1.477-0.663,2.098-1.165c-0.812,0-1.523-0.238-2.133-0.718c-0.609-0.478-1.033-1.074-1.273-1.79
	c0.121,0.021,0.234,0.041,0.342,0.053c0.107,0.012,0.221,0.021,0.34,0.021c0.168,0,0.328-0.015,0.484-0.036
	c0.154-0.023,0.316-0.061,0.482-0.107c-0.836-0.166-1.533-0.578-2.096-1.236c-0.561-0.655-0.842-1.438-0.842-2.348V43.23
	c0.477,0.264,1.027,0.418,1.648,0.467c-0.477-0.336-0.865-0.771-1.164-1.312c-0.302-0.536-0.45-1.116-0.45-1.737
	c0-0.67,0.166-1.278,0.502-1.828c0.908,1.123,2.006,2.02,3.299,2.688c1.289,0.672,2.688,1.04,4.191,1.11
	c-0.023-0.119-0.041-0.25-0.053-0.396c-0.012-0.145-0.018-0.285-0.018-0.432c0-0.5,0.094-0.973,0.287-1.414
	c0.19-0.441,0.446-0.831,0.77-1.165c0.322-0.335,0.705-0.598,1.146-0.788c0.442-0.191,0.913-0.287,1.418-0.287
	c0.549,0,1.049,0.106,1.504,0.322c0.452,0.215,0.848,0.49,1.185,0.825c0.403-0.072,0.799-0.187,1.182-0.341
	c0.384-0.156,0.755-0.329,1.113-0.521c-0.119,0.405-0.324,0.782-0.611,1.128C22.866,39.898,22.532,40.189,22.148,40.43
	 M29.999,44.982c0-2.078-0.396-4.027-1.185-5.842c-0.787-1.816-1.862-3.399-3.224-4.75c-1.362-1.352-2.95-2.42-4.768-3.209
	C19.007,30.395,17.061,30,14.982,30c-2.08,0-4.027,0.395-5.842,1.184c-1.816,0.787-3.4,1.857-4.75,3.209
	c-1.35,1.351-2.42,2.934-3.207,4.748C0.394,40.955,0,42.904,0,44.982s0.395,4.024,1.184,5.843c0.786,1.815,1.857,3.405,3.206,4.766
	c1.35,1.362,2.934,2.438,4.75,3.226C10.955,59.605,12.902,60,14.982,60c2.079,0,4.025-0.395,5.843-1.184
	c1.815-0.789,3.403-1.863,4.768-3.228c1.359-1.358,2.437-2.95,3.224-4.766C29.604,49.009,29.999,47.061,29.999,44.982"/>
</svg>
