<?xml version="1.0" encoding="utf-8"?>
<!-- Generator: Adobe Illustrator 16.0.0, SVG Export Plug-In . SVG Version: 6.00 Build 0)  -->
<!DOCTYPE svg PUBLIC "-//W3C//DTD SVG 1.1//EN" "http://www.w3.org/Graphics/SVG/1.1/DTD/svg11.dtd">
<svg version="1.1" xmlns="http://www.w3.org/2000/svg" xmlns:xlink="http://www.w3.org/1999/xlink" x="0px" y="0px"
	 width="300.206px" height="301px" viewBox="0 0 300.206 301" enable-background="new 0 0 300.206 301" xml:space="preserve">
<g id="Layer_2">
	<path fill="#231F20" d="M-349.999-605.813c12.233,0,22.164,9.689,22.164,21.639v258.62c0,11.95-9.931,21.639-22.162,21.639
		h-255.673c-12.233,0-22.164-9.689-22.164-21.639v-258.62l0,0c0-11.95,9.931-21.639,22.164-21.639H-349.999z"/>
	<path fill="#231F20" d="M-721.98-605.813c12.233,0,22.164,9.689,22.164,21.639v258.62c0,11.95-9.931,21.639-22.162,21.639h-255.673
		c-12.233,0-22.164-9.689-22.164-21.639v-258.62l0,0c0-11.95,9.931-21.639,22.164-21.639H-721.98z"/>
	<g>
		<path d="M1021.362,135.567v-0.484c-0.121,0.161-0.242,0.323-0.322,0.484H1021.362z"/>
		<path d="M1137.722,0H882.349c-12.219,0-22.143,9.216-22.143,21.151v258.319c0,11.936,9.924,21.529,22.143,21.529h255.375
			c12.217,0,21.482-9.594,21.482-21.529V21.151C1159.206,9.216,1149.94,0,1137.722,0z M950.206,252h-45V116h45V252z M928.415,97
			h-0.283c-15.201,0-25-10.334-25-23.4c0-13.388,10.121-23.495,25.605-23.495s25.001,10.08,25.283,23.467
			C954.021,86.638,944.222,97,928.415,97z M1114.206,252h-46v-72.882c0-18.307-6.143-30.768-22.515-30.768
			c-12.501,0-19.844,8.388-23.11,16.533c-1.209,2.903-1.375,6.976-1.375,11.049V252h-45.088c0,0,0.564-123,0-136h45.088v19.083
			c6-9.275,16.821-22.461,40.854-22.461c29.76,0,52.146,19.437,52.146,61.293V252z"/>
	</g>
	<g>
	</g>
	<g>
		<path d="M1567.854,0h-255.671c-12.232,0-21.977,9.227-21.977,21.177v258.62c0,11.95,9.744,21.204,21.977,21.204h255.673
			c12.232,0,22.351-9.254,22.351-21.204V21.177C1590.206,9.227,1580.088,0,1567.854,0z M1439.959,271.481
			c-66.761,0-120.878-54.117-120.878-120.996c0-66.761,54.117-120.993,120.878-120.993c66.879,0,120.996,54.232,120.996,120.993
			C1560.955,217.364,1506.838,271.481,1439.959,271.481z"/>
		<path d="M1439.959,48.398c-56.244,0-101.843,45.724-101.843,102.087c0,45.845,30.09,84.72,72.09,98.309v-19.261
			c-30,6.735-36.169-13.942-36.169-13.942c-4.727-12.171-11.646-15.361-11.646-15.361c-9.57-6.499,0.677-6.381,0.677-6.381
			c10.517,0.709,16.055,10.753,16.055,10.753c9.926,17.015,26.341,10.871,31.422,8.39c1.536-7.444,7.322-8.98,9.213-9.571
			c-26.823-2.836-55.538-12.525-55.538-58.961c0-12.998,4.607-23.632,12.17-31.903c-1.182-3.072-5.318-15.125,1.182-31.549
			c0,0,10.043-3.187,32.729,12.17c9.453-2.599,19.614-3.899,29.776-4.017c10.044,0.118,20.205,1.418,29.776,4.017
			c22.687-15.357,32.612-12.17,32.612-12.17c6.499,16.424,2.481,28.477,1.182,31.549c7.681,8.271,12.289,18.905,12.289,31.903
			c0,46.437-28.773,56.007-55.596,58.843c4.844,3.309,9.865,9.571,9.865,21.505v23.987c42-13.707,71.783-52.464,71.783-98.309
			C1541.989,94.122,1496.321,48.398,1439.959,48.398z"/>
	</g>
	<g id="XMLID_2_">
		<g>
			<path fill="#FFFFFF" d="M680.771-500.168v78.068h-45.284v-72.867c0-18.307-6.533-30.768-22.905-30.768
				c-12.5,0-19.96,8.388-23.227,16.533c-1.209,2.903-1.492,6.976-1.492,11.049v76.052h-45.244c0,0,0.564-123.393,0-136.176h45.244
				V-539c-0.121,0.161-0.242,0.323-0.323,0.484h0.323V-539c6.008-9.275,16.775-22.461,40.808-22.461
				C658.431-561.461,680.771-542.025,680.771-500.168z"/>
			<rect x="472.292" y="-558.276" fill="#FFFFFF" width="45.285" height="136.176"/>
			<path fill="#FFFFFF" d="M520.521-600.375c0,13.065-9.799,23.509-25.606,23.509h-0.282c-15.202,0-25.001-10.444-25.001-23.509
				c0-13.388,10.122-23.549,25.606-23.549C510.722-623.924,520.238-613.762,520.521-600.375z"/>
		</g>
		<g>
		</g>
	</g>
	<g>
		<path fill="#FFFFFF" d="M1034.955-523.599c0,66.878-54.117,120.996-120.996,120.996c-66.761,0-120.878-54.117-120.878-120.996
			c0-66.761,54.117-120.993,120.878-120.993C980.838-644.592,1034.955-590.36,1034.955-523.599z M944.326-425.29
			c41.593-13.707,71.723-52.464,71.723-98.309c0-56.363-45.728-102.087-102.09-102.087c-56.244,0-101.973,45.724-101.973,102.087
			c0,45.845,30.249,84.72,71.96,98.309v-19.261c-29.776,6.735-36.039-13.942-36.039-13.942c-4.727-12.171-11.58-15.361-11.58-15.361
			c-9.57-6.499,0.709-6.381,0.709-6.381c10.517,0.709,16.07,10.753,16.07,10.753c9.926,17.015,26.35,10.871,31.431,8.39
			c1.536-7.444,7.326-8.98,9.217-9.571c-26.823-2.836-55.536-12.525-55.536-58.961c0-12.998,4.608-23.632,12.171-31.903
			c-1.182-3.072-5.317-15.125,1.182-31.549c0,0,10.044-3.187,32.73,12.17c9.453-2.599,19.614-3.899,29.776-4.017
			c10.044,0.118,20.205,1.418,29.776,4.017c22.687-15.357,32.612-12.17,32.612-12.17c6.499,16.424,2.481,28.477,1.182,31.549
			c7.681,8.271,12.289,18.905,12.289,31.903c0,46.437-28.714,56.007-55.535,58.843c4.844,3.309,9.925,9.571,9.925,21.505V-425.29z"
			/>
	</g>
	<g id="XMLID_1_">
		<g>
			<path fill="#FFFFFF" d="M680.771-1071.623v78.068h-45.284v-72.867c0-18.307-6.533-30.768-22.905-30.768
				c-12.5,0-19.96,8.388-23.227,16.533c-1.209,2.903-1.492,6.976-1.492,11.049v76.052h-45.244c0,0,0.564-123.393,0-136.176h45.244
				v19.275c-0.121,0.161-0.242,0.323-0.323,0.484h0.323v-0.484c6.008-9.275,16.775-22.461,40.808-22.461
				C658.431-1132.917,680.771-1113.48,680.771-1071.623z"/>
			<rect x="472.292" y="-1129.731" fill="#FFFFFF" width="45.285" height="136.176"/>
			<path fill="#FFFFFF" d="M520.521-1171.83c0,13.065-9.799,23.509-25.606,23.509h-0.282c-15.202,0-25.001-10.444-25.001-23.509
				c0-13.388,10.122-23.549,25.606-23.549C510.722-1195.379,520.238-1185.217,520.521-1171.83z"/>
		</g>
		<g>
		</g>
	</g>
	<g>
		<path fill="#FFFFFF" d="M1034.955-1095.054c0,66.878-54.117,120.996-120.996,120.996c-66.761,0-120.878-54.117-120.878-120.996
			c0-66.761,54.117-120.993,120.878-120.993C980.838-1216.047,1034.955-1161.815,1034.955-1095.054z M944.326-996.745
			c41.593-13.707,71.723-52.464,71.723-98.309c0-56.363-45.728-102.087-102.09-102.087c-56.244,0-101.973,45.724-101.973,102.087
			c0,45.845,30.249,84.72,71.96,98.309v-19.261c-29.776,6.735-36.039-13.942-36.039-13.942c-4.727-12.171-11.58-15.361-11.58-15.361
			c-9.57-6.499,0.709-6.381,0.709-6.381c10.517,0.709,16.07,10.753,16.07,10.753c9.926,17.015,26.35,10.871,31.431,8.39
			c1.536-7.444,7.326-8.98,9.217-9.571c-26.823-2.836-55.536-12.525-55.536-58.961c0-12.998,4.608-23.632,12.171-31.903
			c-1.182-3.072-5.317-15.125,1.182-31.549c0,0,10.044-3.187,32.73,12.17c9.453-2.599,19.614-3.899,29.776-4.017
			c10.044,0.118,20.205,1.418,29.776,4.017c22.687-15.357,32.612-12.17,32.612-12.17c6.499,16.424,2.481,28.477,1.182,31.549
			c7.681,8.271,12.289,18.905,12.289,31.903c0,46.437-28.714,56.007-55.535,58.843c4.844,3.309,9.925,9.571,9.925,21.505V-996.745z"
			/>
	</g>
</g>
<g id="Layer_3">
	<path d="M278.476,0H22.805C10.572,0,0.206,9.227,0.206,21.177v258.62c0,11.95,10.366,21.204,22.599,21.204h138.401V185h-39v-45h39
		v-33.315c0-38.731,23.593-59.82,58.143-59.82c16.55,0,30.857,1.232,34.857,1.783v40.476l-24.267,0.011
		c-18.791,0-22.733,8.929-22.733,22.031V140h45.216l-5.835,45h-39.381v116h71.271c12.232,0,21.729-9.254,21.729-21.204V21.177
		C300.206,9.227,290.709,0,278.476,0z"/>
	<path fill="#FFFFFF" d="M62.476-1246h-255.671c-12.233,0-22.599,9.227-22.599,21.177v258.62c0,11.95,10.366,21.204,22.599,21.204
		h138.401v-116h-39v-45h39v-33.315c0-38.731,23.593-59.82,58.143-59.82c16.55,0,30.857,1.232,34.857,1.783v40.476l-24.267,0.011
		c-18.791,0-22.733,8.929-22.733,22.031V-1106h45.216l-5.835,45H-8.794v116h71.271c12.232,0,21.729-9.254,21.729-21.204v-258.62
		C84.206-1236.773,74.709-1246,62.476-1246z"/>
	<path id="White_1_" fill="#FFFFFF" d="M-46.392-372.648V-488.77h38.979l5.835-45.255h-44.813v-28.893
		c0-13.103,3.638-22.031,22.429-22.031L0-584.96v-40.476c-4.146-0.551-18.37-1.783-34.919-1.783
		c-34.55,0-58.206,21.089-58.206,59.82v33.374h-39.078v45.255h39.078v116.121H-46.392z"/>
	<g>
		<path fill="#FFFFFF" stroke="#000000" stroke-miterlimit="10" d="M-515.567-328.841v-24.753c0-14.791,6.188-22.64,12.377-26.866
			c-33.507-3.471-69.429-15.546-69.429-73.503c0-16.3,5.735-29.583,15.244-39.846c-1.51-3.924-6.49-19.017,1.51-39.393
			c0,0,12.526-4.075,40.901,15.244c11.773-3.32,24.603-4.98,37.13-4.98c12.678,0,25.356,1.66,37.279,4.98
			c28.375-19.319,40.752-15.244,40.752-15.244c8.15,20.376,3.019,35.469,1.509,39.393c9.509,10.263,15.244,23.545,15.244,39.846
			c0,57.958-35.922,70.032-69.428,73.503c6.188,4.226,12.526,12.075,12.526,26.866v24.753H-515.567z"/>
	</g>
	<g>
		<path fill="#FFFFFF" stroke="#000000" stroke-miterlimit="10" d="M-887.548-303.915v-49.679c0-14.791,6.188-22.64,12.377-26.866
			c-33.507-3.471-69.429-15.546-69.429-73.503c0-16.3,5.735-29.583,15.244-39.846c-1.51-3.924-6.49-19.017,1.51-39.393
			c0,0,12.526-4.075,40.901,15.244c11.773-3.32,24.603-4.98,37.13-4.98c12.678,0,25.356,1.66,37.279,4.98
			c28.375-19.319,40.752-15.244,40.752-15.244c8.15,20.376,3.019,35.469,1.509,39.393c9.509,10.263,15.244,23.545,15.244,39.846
			c0,57.958-35.922,70.032-69.428,73.503c6.188,4.226,12.526,12.075,12.526,26.866v49.679H-887.548z"/>
	</g>
</g>
<g id="Layer_1">
	<path d="M707.545,0H451.874c-12.233,0-21.668,9.227-21.668,21.177v258.62c0,11.95,9.435,21.204,21.668,21.204h255.672
		c12.232,0,22.66-9.254,22.66-21.204V21.177C730.206,9.227,719.778,0,707.545,0z M659.235,108.751
		c0.079,1.76,0.119,3.53,0.119,5.309c0,54.223-41.272,116.747-116.746,116.747c-23.172,0-44.74-6.794-62.899-18.437
		c3.21,0.38,6.476,0.574,9.788,0.574c19.225,0,36.917-6.56,50.96-17.565c-17.956-0.33-33.109-12.194-38.331-28.495
		c2.506,0.479,5.076,0.736,7.72,0.736c3.742,0,7.367-0.502,10.81-1.439c-18.771-3.771-32.915-20.354-32.915-40.234
		c0-0.173,0-0.345,0.004-0.516c5.532,3.073,11.859,4.919,18.585,5.132c-11.01-7.358-18.254-19.917-18.254-34.153
		c0-7.52,2.023-14.568,5.556-20.628c20.237,24.825,50.472,41.161,84.574,42.872c-0.7-3.003-1.062-6.135-1.062-9.351
		c0-22.66,18.373-41.031,41.033-41.031c11.802,0,22.466,4.982,29.95,12.957c9.347-1.84,18.128-5.254,26.057-9.957
		c-3.063,9.582-9.57,17.623-18.041,22.701c8.3-0.992,16.208-3.197,23.566-6.461C674.209,95.74,667.253,102.966,659.235,108.751z"/>
	<path fill="#FFFFFF" d="M356.71-586.573c-7.358,3.264-15.267,5.469-23.566,6.461c8.471-5.078,14.978-13.119,18.041-22.701
		c-7.929,4.703-16.71,8.117-26.057,9.957c-7.484-7.975-18.148-12.957-29.95-12.957c-22.66,0-41.033,18.371-41.033,41.031
		c0,3.216,0.363,6.348,1.062,9.351c-34.102-1.711-64.336-18.047-84.574-42.872c-3.532,6.06-5.556,13.108-5.556,20.628
		c0,14.236,7.244,26.795,18.254,34.153c-6.726-0.213-13.053-2.059-18.585-5.132c-0.004,0.171-0.004,0.343-0.004,0.516
		c0,19.88,14.144,36.464,32.915,40.234c-3.443,0.938-7.068,1.439-10.81,1.439c-2.644,0-5.214-0.258-7.72-0.736
		c5.222,16.301,20.375,28.165,38.331,28.495c-14.043,11.006-31.735,17.565-50.96,17.565c-3.312,0-6.578-0.194-9.788-0.574
		c18.159,11.643,39.727,18.437,62.899,18.437c75.473,0,116.746-62.524,116.746-116.747c0-1.779-0.04-3.548-0.119-5.309
		C344.253-571.118,351.209-578.344,356.71-586.573z"/>
	<path fill="#FFFFFF" d="M356.71-1158.028c-7.358,3.264-15.267,5.469-23.566,6.461c8.471-5.078,14.978-13.119,18.041-22.701
		c-7.929,4.703-16.71,8.117-26.057,9.957c-7.484-7.975-18.148-12.957-29.95-12.957c-22.66,0-41.033,18.371-41.033,41.031
		c0,3.216,0.363,6.348,1.062,9.351c-34.102-1.711-64.336-18.047-84.574-42.872c-3.532,6.06-5.556,13.108-5.556,20.628
		c0,14.236,7.244,26.795,18.254,34.153c-6.726-0.213-13.053-2.059-18.585-5.132c-0.004,0.171-0.004,0.343-0.004,0.516
		c0,19.88,14.144,36.464,32.915,40.234c-3.443,0.938-7.068,1.439-10.81,1.439c-2.644,0-5.214-0.258-7.72-0.736
		c5.222,16.301,20.375,28.165,38.331,28.495c-14.043,11.006-31.735,17.565-50.96,17.565c-3.312,0-6.578-0.194-9.788-0.574
		c18.159,11.643,39.727,18.437,62.899,18.437c75.473,0,116.746-62.524,116.746-116.747c0-1.779-0.04-3.548-0.119-5.309
		C344.253-1142.573,351.209-1149.799,356.71-1158.028z"/>
</g>
</svg>
